<svg width="118" height="120" viewBox="0 0 118 120" fill="none" xmlns="http://www.w3.org/2000/svg">
  <rect width="118" height="120" rx="12" fill="white"/>
  <circle cx="59" cy="41" r="33" fill="white" stroke="#7BC043" stroke-width="5"/>
  <path
    d="M59.5 16C57.5 20.8 56.6 25.7 56.8 30.5C52.3 28.8 48.2 25.6 45.1 21.4C45.5 26.9 44.3 32.3 41.6 37C38.8 35.7 35.8 35 32.7 34.8C35.8 38.7 37.7 43.3 38.3 48.3C32.8 49.8 27.8 52.8 24 57.1C29.7 56.7 35.4 57.7 40.6 60C38.3 63.8 37.1 68.2 37.2 72.7C41.1 69.8 45.7 68 50.5 67.6C50.4 72.8 51.5 78 53.8 82.7C56.2 78.6 57.9 74 58.8 69.2C62.8 72.8 65.7 77.4 67.3 82.6C69.7 78 71 72.9 71 67.7C76 68.3 80.6 70.3 84.4 73.4C84.6 68.8 83.4 64.3 81 60.3C86.2 58 91.9 57 97.6 57.4C93.9 53 89 49.9 83.5 48.4C84.2 43.3 86.2 38.7 89.4 34.8C86.1 35 83 35.8 80.1 37.2C77.3 32.5 76 27.1 76.4 21.6C73.3 25.8 69.2 29 64.7 30.7C64.8 25.8 63.6 20.8 61.4 16.1L59.5 16Z"
    fill="#7BC043"
  />
  <text x="59" y="107" text-anchor="middle" font-family="Arial, Helvetica, sans-serif" font-size="18" font-weight="700" fill="#55595C">NYC Parks</text>
</svg>
